<?xml version="1.0" encoding="utf-8"?>
<!-- Generator: Adobe Illustrator 24.1.2, SVG Export Plug-In . SVG Version: 6.00 Build 0)  -->
<svg version="1.1" id="Layer_1" xmlns="http://www.w3.org/2000/svg" xmlns:xlink="http://www.w3.org/1999/xlink" x="0px" y="0px"
	 viewBox="0 0 273.4 69.1" style="enable-background:new 0 0 273.4 69.1;" xml:space="preserve">
<style type="text/css">
	.st0{fill:#18266D;}
	.st1{fill:#FCB310;}
	.st2{fill:#CC3256;}
	.st3{fill:#0914C3;}
</style>
<g>
	<g>
		<path class="st0" d="M77.3,9.1v5.1h10v4.9h-10v9.3H71V4.2h18.8v4.9H77.3z"/>
		<path class="st0" d="M102.6,19.6h-3.8v8.8h-6.2V4.2h11.5c5.8,0,9.1,2.7,9.1,7.7c0,3.5-1.6,5.9-4.7,7l6.1,9.5h-7L102.6,19.6z
			 M98.9,15.1h4.3c2.7,0,3.8-0.9,3.8-3.1c0-2.1-1.2-3-3.8-3h-4.3V15.1z"/>
		<path class="st0" d="M137.2,23.6v4.9h-19.3V4.2h18.8v4.9h-12.5V14h10v4.6h-10v4.9H137.2z"/>
		<path class="st0" d="M160.3,23.6v4.9H141V4.2h18.8v4.9h-12.5V14h10v4.6h-10v4.9H160.3z"/>
		<path class="st0" d="M180.2,9.1v5.1h10v4.9h-10v9.3h-6.3V4.2h18.8v4.9H180.2z"/>
		<path class="st0" d="M217.3,16.3c0,7.8-4.5,12.5-11.8,12.5c-7.4,0-11.9-4.7-11.9-12.5c0-7.8,4.5-12.5,11.9-12.5
			C212.9,3.9,217.3,8.5,217.3,16.3z M200.1,16.3c0,4.9,1.9,7.5,5.4,7.5c3.5,0,5.4-2.6,5.4-7.5c0-4.9-1.9-7.5-5.4-7.5
			C202,8.8,200.1,11.4,200.1,16.3z"/>
		<path class="st0" d="M230.2,19.6h-3.8v8.8h-6.2V4.2h11.5c5.8,0,9.1,2.7,9.1,7.7c0,3.5-1.6,5.9-4.7,7l6.1,9.5h-7L230.2,19.6z
			 M226.4,15.1h4.3c2.7,0,3.8-0.9,3.8-3.1c0-2.1-1.2-3-3.8-3h-4.3V15.1z"/>
		<path class="st0" d="M273.4,28.4h-5.6V17.3l0.2-7.4H268l-6,18.5h-5.1l-6-18.5h-0.1l0.2,7.4v11.1h-5.6V4.2h9l3.8,12.3l1.4,5.1h0.1
			l1.4-5.1l3.8-12.3h8.6V28.4z"/>
		<path class="st0" d="M77.3,45.8v5.1h10v4.9h-10v9.3H71V40.9h18.8v4.9H77.3z"/>
		<path class="st0" d="M99.7,65.1h-6.3V40.9h6.3V65.1z"/>
		<path class="st0" d="M105.1,40.9h11.8c6,0,8.7,2.3,8.7,6.5c0,2.7-1.6,4.9-4.9,5.4v0c3.7,0.5,5.5,2.7,5.5,5.7c0,4.2-3,6.5-8.8,6.5
			h-12.3V40.9z M115.7,50.8c2.3,0,3.4-0.9,3.4-2.6s-1.1-2.6-3.4-2.6h-4.5v5.3H115.7z M116.3,60.6c2.3,0,3.4-1,3.4-2.7
			c0-1.7-1.1-2.6-3.4-2.6h-5.2v5.3H116.3z"/>
		<path class="st0" d="M149.4,60.2v4.9h-19.3V40.9h18.8v4.9h-12.5v4.9h10v4.6h-10v4.9H149.4z"/>
		<path class="st0" d="M163.2,56.2h-3.8v8.8h-6.2V40.9h11.5c5.8,0,9.1,2.7,9.1,7.7c0,3.5-1.6,5.9-4.7,7l6.1,9.5h-7L163.2,56.2z
			 M159.4,51.8h4.3c2.7,0,3.8-0.9,3.8-3.1c0-2.1-1.2-3-3.8-3h-4.3V51.8z"/>
		<path class="st0" d="M198.3,44.9l-3.6,4.1c-1.6-2.4-3.7-3.6-6.7-3.6c-2.6,0-4,1-4,2.4c0,1.2,1.3,1.9,4.8,2.5
			c6.7,1.2,9.3,3.4,9.3,7.6c0,4.7-4.4,7.4-10.2,7.4c-5.7,0-8.7-1.5-11.1-4.1l3.2-4.4c2,2.7,4.3,3.6,7.5,3.6c2.7,0,4-0.8,4-2.2
			c0-1.1-1.4-1.8-4.7-2.4c-5.7-1.1-9.4-2.8-9.4-7.5c0-4.5,3.8-7.9,10.4-7.9C192.5,40.5,195.5,41.8,198.3,44.9z"/>
	</g>
	<polygon class="st1" points="46.5,32.5 19.9,6.7 26.7,0 53.4,25.8 	"/>
	<polygon class="st1" points="21.8,27.5 10.2,16.2 17,9.5 28.6,20.8 	"/>
	<polygon class="st1" points="6.9,31.6 0.5,25.7 7.3,19 13.8,24.9 	"/>
	<polygon class="st2" points="46,50.5 24.7,29.9 31.6,23.1 52.9,43.8 	"/>
	<polygon class="st2" points="22.1,46.3 9.7,34.2 16.6,27.5 28.9,39.6 	"/>
	<polygon class="st2" points="6.9,50.1 0,43.7 6.9,37 13.8,43.4 	"/>
	<polygon class="st3" points="46,69 25,49.2 31.9,42.4 52.9,62.3 	"/>
	<polygon class="st3" points="26.4,68.9 9.7,52.7 16.5,46 33.3,62.1 	"/>
	<polygon class="st3" points="7.4,69.1 0,62.2 6.8,55.5 14.3,62.3 	"/>
</g>
</svg>
