<?xml version="1.0" encoding="utf-8"?>
<!-- Generator: Adobe Illustrator 24.1.2, SVG Export Plug-In . SVG Version: 6.00 Build 0)  -->
<svg version="1.1" id="Layer_1" xmlns="http://www.w3.org/2000/svg" xmlns:xlink="http://www.w3.org/1999/xlink" x="0px" y="0px"
	 viewBox="0 0 485.7 628.5" style="enable-background:new 0 0 485.7 628.5;" xml:space="preserve">
<style type="text/css">
	.st0{fill:#F4F4F4;}
</style>
<g>
	<polygon class="st0" points="423.3,295.7 180.9,61.1 243.2,0 485.7,234.6 	"/>
	<polygon class="st0" points="198.1,250.2 92.7,147.6 155,86.4 260.4,189.1 	"/>
	<polygon class="st0" points="63,287.9 4.5,234 66.9,172.9 125.3,226.8 	"/>
	<polygon class="st0" points="418.9,459.6 224.8,271.7 287.2,210.6 481.3,398.5 	"/>
	<polygon class="st0" points="201.1,421.3 88.3,311.4 150.6,250.3 263.4,360.2 	"/>
	<polygon class="st0" points="62.9,456.3 0.1,397.8 62.5,336.7 125.2,395.2 	"/>
	<polygon class="st0" points="418.8,628 227.8,447.4 290.1,386.3 481.1,566.9 	"/>
	<polygon class="st0" points="240.6,626.7 88.2,479.8 150.5,418.7 302.9,565.5 	"/>
	<polygon class="st0" points="67.5,628.5 0,566.3 62.3,505.1 129.8,567.4 	"/>
</g>
</svg>
