<?xml version="1.0" standalone="no"?>
<!DOCTYPE svg PUBLIC "-//W3C//DTD SVG 20010904//EN"
 "http://www.w3.org/TR/2001/REC-SVG-20010904/DTD/svg10.dtd">
<svg version="1.0" xmlns="http://www.w3.org/2000/svg"
 width="500.000000pt" height="500.000000pt" viewBox="0 0 500.000000 500.000000"
 preserveAspectRatio="xMidYMid meet">
<metadata>
Created by potrace 1.14, written by Peter Selinger 2001-2017
</metadata>
<g transform="translate(0.000000,500.000000) scale(0.100000,-0.100000)"
fill="#000000" stroke="none">
<path d="M2595 2930 l-180 -180 573 -573 572 -572 180 180 180 180 -573 573
-572 572 -180 -180z"/>
<path d="M1800 2695 l-175 -175 320 -320 320 -320 180 180 180 180 -315 315
c-173 173 -319 315 -325 315 -6 0 -89 -79 -185 -175z"/>
<path d="M1277 2192 l-177 -177 180 -180 180 -180 180 180 180 180 -177 177
c-98 98 -180 178 -183 178 -3 0 -85 -80 -183 -178z"/>
<path d="M2597 1902 l-177 -177 550 -550 550 -550 180 180 180 180 -547 547
c-302 302 -550 548 -553 548 -3 0 -85 -80 -183 -178z"/>
<path d="M1787 1682 l-177 -177 438 -438 437 -437 180 180 180 180 -435 435
c-239 239 -437 435 -440 435 -3 0 -85 -80 -183 -178z"/>
<path d="M1275 1170 l-180 -180 183 -183 182 -182 182 182 183 183 -180 180
c-99 99 -182 180 -185 180 -3 0 -86 -81 -185 -180z"/>
</g>
</svg>
